<svg width="40" height="40" viewBox="0 0 40 40" fill="none" xmlns="http://www.w3.org/2000/svg">
<rect width="40" height="40" rx="20" fill="#EBEBEB"/>
<path d="M32.9953 26.9193C32.7029 23.5492 31.0544 20.5748 28.6174 18.5699C28.1171 18.1582 27.5847 17.786 27.0231 17.4614C25.3188 16.4768 23.3538 15.9139 21.2625 15.9139C17.818 15.9139 14.7144 17.439 12.5583 19.865C13.0651 20.285 13.6124 20.6549 14.1943 20.9666C15.9862 19.0717 18.4919 17.8911 21.2625 17.8911C22.9005 17.8911 24.4455 18.3047 25.806 19.0334C26.3879 19.345 26.9352 19.715 27.442 20.135C29.4668 21.8127 30.8348 24.2929 31.077 27.1014C31.1209 27.6105 31.538 28 32.0362 28C32.6039 28 33.0464 27.4993 32.9961 26.9193L32.9953 26.9193Z" fill="#28ECA4"/>
<path d="M25.8054 19.0333C24.0135 20.9282 21.5078 22.1089 18.7373 22.1089C17.155 22.1104 15.596 21.7184 14.1938 20.9666C13.6118 20.655 13.0646 20.2849 12.5578 19.865C10.5326 18.1873 9.1651 15.707 8.92284 12.8986C8.87894 12.3895 8.46178 12 7.96366 12C7.39612 12 6.95354 12.501 7.00391 13.0807C7.2963 16.4508 8.94477 19.4252 11.3818 21.4301C11.8822 21.8417 12.4146 22.2138 12.9762 22.5386C14.6804 23.5229 16.6455 24.086 18.7368 24.086C22.1813 24.086 25.2849 22.561 27.4408 20.1349C26.9341 19.715 26.3868 19.345 25.8048 19.0334L25.8054 19.0333Z" fill="#2449C1"/>
</svg>
