<svg xmlns="http://www.w3.org/2000/svg" viewBox="0 0 454.17 157.68"><defs><style>.cls-1{fill:#094e93;}.cls-2{fill:#23a018;}.cls-3{fill:#606060;}</style></defs><title>lgpd</title><g id="Camada_2" data-name="Camada 2"><g id="Camada_1-2" data-name="Camada 1"><path class="cls-1" d="M63.17,0S43.22,23.27,0,26.6V78.67A65.65,65.65,0,0,0,10.8,115c9.28,14,25.53,30.77,52.37,37.92C90,145.78,106.26,129,115.54,115a65.65,65.65,0,0,0,10.8-36.34V26.6C83.12,23.27,63.17,0,63.17,0Zm53.19,78.67a55.53,55.53,0,0,1-9.13,30.82,80.46,80.46,0,0,1-44.06,33.08,80.5,80.5,0,0,1-44.06-33.08A55.46,55.46,0,0,1,10,78.67V35.52c26.59-3.88,44.07-14.73,53.2-22,9.13,7.29,26.61,18.14,53.19,22Z"/><path class="cls-1" d="M63.17,81.91a4.44,4.44,0,0,0-2.08,8.36l-.71,6.31a1.49,1.49,0,0,0,1.48,1.65h2.62A1.48,1.48,0,0,0,66,96.58l-.7-6.31a4.44,4.44,0,0,0-2.08-8.36Z"/><path class="cls-1" d="M63.17,54.71A10.89,10.89,0,0,0,52.29,65.59v8.16H74.05V65.59A10.89,10.89,0,0,0,63.17,54.71Z"/><path class="cls-1" d="M63.17,26A120.25,120.25,0,0,1,20,43.89V78.67A45.51,45.51,0,0,0,27.42,104c9,13.6,21,23,35.75,28.12C77.89,127,89.9,117.57,98.92,104a45.57,45.57,0,0,0,7.47-25.31V43.89A120.25,120.25,0,0,1,63.17,26Zm24.48,75a5.45,5.45,0,0,1-5.44,5.44H44.13A5.44,5.44,0,0,1,38.69,101V79.19a5.43,5.43,0,0,1,5.44-5.44V65.59a19,19,0,1,1,38.08,0v8.16a5.44,5.44,0,0,1,5.44,5.44Z"/><path class="cls-2" d="M155.1,13.82h23.76V94.27h18.82V118.5H155.1Z"/><path class="cls-2" d="M285.74,59.85V77.41q0,20.4-9.85,32T249,121.09q-19.14,0-29.56-14.39T209,65.65q0-26.9,10.39-40.81t30.38-13.92q22.42,0,32.47,23.91l-22.67,9.34a32.06,32.06,0,0,0-5.25-7.34,9.27,9.27,0,0,0-6.66-2.31q-7.22,0-10.24,7.57t-3,24.5q0,15.76,3.42,23.17t10.86,7.41q11.91,0,12.31-17H249.9V59.85Z"/><path class="cls-2" d="M303.22,13.82h29.41q15.53,0,24.94,8.86T367,46.05q0,15.29-9.52,24t-26.39,8.67H327V118.5H303.22ZM327,33.89v24.7q8-.15,11.8-3.05t3.81-9.18q0-6.73-3.69-9.53T327,33.89Z"/><path class="cls-2" d="M384.93,13.82h22.19q23.06,0,35.06,13.13t12,38.39q0,19.13-5.92,30.89t-16.54,17a52.33,52.33,0,0,1-23.49,5.25H384.93Zm23.76,22.27V96.15q10.83-.93,15.29-7.64t4.47-22.07A64.63,64.63,0,0,0,426.88,51a22.28,22.28,0,0,0-4.66-9.73,13.2,13.2,0,0,0-6-4.19A37.72,37.72,0,0,0,408.69,36.09Z"/><path class="cls-3" d="M155.62,141h1v11.55h6.68l-.18.89h-7.46Z"/><path class="cls-3" d="M172.48,147.31h-6.34v5.22h7l-.15.89h-7.76V141h7.62v.89h-6.66v4.55h6.34Z"/><path class="cls-3" d="M176.5,141v12.44h-1V141Z"/><path class="cls-3" d="M194.19,153.42h-.8a9.06,9.06,0,0,1-.12-2c-.45.85-1.42,2.13-4,2.13-3.57,0-5.4-2.72-5.4-6.25,0-3.72,2-6.5,5.6-6.5,2.68,0,4.46,1.4,4.85,3.69h-1a3.7,3.7,0,0,0-3.93-2.81c-3.11,0-4.53,2.42-4.53,5.56,0,2.85,1.37,5.42,4.41,5.42s4-2,4-4.78v-.14h-4v-.89h4.94Z"/><path class="cls-3" d="M204.71,147.31h-6.34v5.22h6.94l-.14.89h-7.76V141H205v.89h-6.66v4.55h6.34Z"/><path class="cls-3" d="M208.74,147.61v5.81h-1V141h4.45c2.46,0,3.75,1.32,3.75,3.27a2.81,2.81,0,0,1-2.32,2.91c1.27.31,2.13,1.14,2.13,3.25v.48a8.35,8.35,0,0,0,.16,2.53h-1a8.38,8.38,0,0,1-.18-2.6v-.32c0-2-.6-2.89-3-2.89Zm0-.89h3c2.19,0,3.2-.82,3.2-2.45s-1-2.4-2.93-2.4h-3.27Z"/><path class="cls-3" d="M220.43,149.12l-1.58,4.3h-1L222.44,141h1.14l4.76,12.44h-1.05l-1.62-4.3Zm4.92-.89c-1.38-3.69-2.09-5.47-2.34-6.3h0c-.3.94-1.1,3.14-2.22,6.3Z"/><path class="cls-3" d="M230.54,141h1v11.55h6.68l-.18.89h-7.46Z"/><path class="cls-3" d="M244.82,141H249c3.41,0,5.77,2.38,5.77,6.11s-2.31,6.33-5.79,6.33h-4.11Zm1,11.55h3c3.28,0,4.9-2.31,4.9-5.38,0-2.74-1.46-5.28-4.9-5.28h-3Z"/><path class="cls-3" d="M264.76,147.31h-6.34v5.22h6.94l-.14.89h-7.76V141h7.62v.89h-6.66v4.55h6.34Z"/><path class="cls-3" d="M272.43,141h4.44c2.28,0,3.84,1.26,3.84,3.47s-1.55,3.55-4,3.55h-3.34v5.42h-1Zm1,6.13h3.43c2,0,2.84-1.06,2.84-2.63a2.49,2.49,0,0,0-2.77-2.61h-3.5Z"/><path class="cls-3" d="M284.21,147.61v5.81h-1V141h4.46c2.45,0,3.75,1.32,3.75,3.27a2.81,2.81,0,0,1-2.33,2.91c1.28.31,2.14,1.14,2.14,3.25v.48a8,8,0,0,0,.16,2.53h-1a8.38,8.38,0,0,1-.18-2.6v-.32c0-2-.6-2.89-3-2.89Zm0-.89h3c2.19,0,3.2-.82,3.2-2.45s-1-2.4-2.93-2.4h-3.27Z"/><path class="cls-3" d="M304.84,147.11c0,3.39-1.82,6.48-5.65,6.48-3.5,0-5.54-2.82-5.54-6.39s2-6.39,5.66-6.39C302.72,140.81,304.84,143.49,304.84,147.11Zm-10.16,0c0,2.86,1.58,5.56,4.56,5.56,3.22,0,4.57-2.63,4.57-5.58s-1.53-5.44-4.53-5.44C296.08,141.69,294.68,144.34,294.68,147.15Z"/><path class="cls-3" d="M309.81,141.87h-4.17V141H315v.89h-4.19v11.55h-1Z"/><path class="cls-3" d="M324.13,147.31h-6.34v5.22h6.94l-.14.89h-7.76V141h7.62v.89h-6.66v4.55h6.34Z"/><path class="cls-3" d="M336.49,150.1a4.53,4.53,0,0,1-4.67,3.46c-3.57,0-5.45-2.84-5.45-6.34s1.85-6.41,5.47-6.41a4.35,4.35,0,0,1,4.67,3.57h-1a3.6,3.6,0,0,0-3.76-2.69c-3.09,0-4.39,2.83-4.39,5.51s1.28,5.47,4.46,5.47a3.65,3.65,0,0,0,3.67-2.57Zm-4.13,3.32-.73,1c.65.07,1.84.43,1.84,1.64s-1.13,1.65-2,1.65a3,3,0,0,1-1.28-.23v-.87a3.68,3.68,0,0,0,1.28.25c.7,0,1.07-.25,1.07-.73,0-.77-1-.94-2-.94v-.41l1.06-1.51Z"/><path class="cls-3" d="M340.33,149.12l-1.58,4.3h-1L342.34,141h1.14l4.76,12.44h-1.05l-1.62-4.3Zm-.37-9.43v-.23c0-1.18.55-1.62,1.39-1.62,1,0,2.25,1,3,1,.39,0,.62-.19.62-.87v-.23h.75v.32c0,1.19-.5,1.62-1.35,1.62-1.05,0-2.17-1.05-3-1.05-.34,0-.57.19-.57.73v.32Zm5.29,8.54c-1.38-3.69-2.09-5.47-2.34-6.3h0c-.3.94-1.1,3.14-2.22,6.3Z"/><path class="cls-3" d="M360.69,147.11c0,3.39-1.81,6.48-5.65,6.48-3.5,0-5.54-2.82-5.54-6.39s2-6.39,5.67-6.39C358.58,140.81,360.69,143.49,360.69,147.11Zm-10.16,0c0,2.86,1.58,5.56,4.57,5.56,3.21,0,4.56-2.63,4.56-5.58s-1.53-5.44-4.53-5.44C351.93,141.69,350.53,144.34,350.53,147.15Z"/><path class="cls-3" d="M368.05,141h4.12c3.41,0,5.77,2.38,5.77,6.11s-2.31,6.33-5.79,6.33h-4.1Zm1,11.55h3c3.28,0,4.9-2.31,4.9-5.38,0-2.74-1.45-5.28-4.9-5.28h-3Z"/><path class="cls-3" d="M388,147.31h-6.34v5.22h6.94l-.14.89h-7.76V141h7.62v.89h-6.66v4.55H388Z"/><path class="cls-3" d="M395.66,141h4.12c3.41,0,5.77,2.38,5.77,6.11s-2.31,6.33-5.79,6.33h-4.1Zm1,11.55h3c3.28,0,4.9-2.31,4.9-5.38,0-2.74-1.46-5.28-4.9-5.28h-3Z"/><path class="cls-3" d="M409.44,149.12l-1.58,4.3h-1L411.45,141h1.14l4.76,12.44H416.3l-1.62-4.3Zm4.92-.89c-1.38-3.69-2.09-5.47-2.34-6.3h0c-.3.94-1.1,3.14-2.22,6.3Z"/><path class="cls-3" d="M419.55,141h4.12c3.41,0,5.77,2.38,5.77,6.11s-2.31,6.33-5.79,6.33h-4.1Zm1,11.55h3c3.29,0,4.9-2.31,4.9-5.38,0-2.74-1.45-5.28-4.9-5.28h-3Z"/><path class="cls-3" d="M442.63,147.11c0,3.39-1.82,6.48-5.65,6.48-3.5,0-5.54-2.82-5.54-6.39s2-6.39,5.66-6.39C440.51,140.81,442.63,143.49,442.63,147.11Zm-10.16,0c0,2.86,1.58,5.56,4.56,5.56,3.22,0,4.57-2.63,4.57-5.58s-1.53-5.44-4.53-5.44C433.87,141.69,432.47,144.34,432.47,147.15Z"/><path class="cls-3" d="M445.4,150.08a3.2,3.2,0,0,0,3.52,2.63c2.27,0,3.14-1.14,3.14-2.49s-.62-2.27-3.36-2.95-3.76-1.51-3.76-3.3c0-1.64,1.19-3.16,3.85-3.16s3.89,1.67,4,3.18h-1a2.78,2.78,0,0,0-3.11-2.3c-1.79,0-2.77.84-2.77,2.22s.82,1.91,3.11,2.47c3.5.87,4,2.28,4,3.77,0,1.83-1.33,3.41-4.21,3.41-3.11,0-4.24-1.81-4.47-3.48Z"/></g></g></svg>