<svg xmlns="http://www.w3.org/2000/svg" xmlns:xlink="http://www.w3.org/1999/xlink" viewBox="0 0 267.85 31.35"><defs><style>.cls-1{fill:none;}.cls-2{clip-path:url(#clip-path);}.cls-3{fill:#fbbc04;}.cls-4{fill:#4285f4;}.cls-5{fill:#34a853;}.cls-6{fill:#1967d2;}.cls-7{fill:#ea4335;}.cls-8{fill:#5f6368;}</style><clipPath id="clip-path" transform="translate(-4.48 -4.17)"><rect class="cls-1" width="40" height="40"/></clipPath></defs><title>google-search-console</title><g id="Camada_2" data-name="Camada 2"><g id="Camada_1-2" data-name="Camada 1"><g class="cls-2"><path class="cls-3" d="M11.08,30.53,6.36,35.25a.94.94,0,0,1-1.32,0L4.75,35a.94.94,0,0,1,0-1.32l4.72-4.72a.94.94,0,0,1,1.32,0l.29.29a.93.93,0,0,1,0,1.32h0" transform="translate(-4.48 -4.17)"/><path class="cls-4" d="M23.75,32.5h6a6,6,0,0,0,6-6h0V10.21a6,6,0,0,0-6-6h0a6,6,0,0,0-6,6h0Z" transform="translate(-4.48 -4.17)"/><path class="cls-3" d="M13.75,32.5a6,6,0,0,0,6-6h0a6,6,0,0,0-6-6h0a6,6,0,0,0-6,6h0a6,6,0,0,0,6,6h0" transform="translate(-4.48 -4.17)"/><path class="cls-5" d="M28,32.5H22.08a6,6,0,0,1-6-6h0V18.54a6,6,0,0,1,6-6h0a6,6,0,0,1,6.05,6h0V32.35a.16.16,0,0,1-.16.15Z" transform="translate(-4.48 -4.17)"/><path class="cls-6" d="M28.13,32.35V18.54a6.06,6.06,0,0,0-4.38-5.81V32.5H28a.15.15,0,0,0,.15-.15h0" transform="translate(-4.48 -4.17)"/><path class="cls-7" d="M19.79,26.58A6,6,0,0,0,16,21v5.59A6,6,0,0,0,17.92,31a6,6,0,0,0,1.87-4.37" transform="translate(-4.48 -4.17)"/></g><path class="cls-8" d="M137,24.42a4.2,4.2,0,0,1-1.54,3.39,6,6,0,0,1-3.81,1.25,5.61,5.61,0,0,1-3.51-1.16,6,6,0,0,1-2.1-3.18l2-.8a4.91,4.91,0,0,0,.56,1.3,4.27,4.27,0,0,0,.84,1,3.74,3.74,0,0,0,1.06.65,3.21,3.21,0,0,0,1.23.24,3.54,3.54,0,0,0,2.3-.73,2.37,2.37,0,0,0,.9-1.94,2.32,2.32,0,0,0-.74-1.72,7,7,0,0,0-2.6-1.34c-1.28-.46-2.07-.78-2.39-.94a4.11,4.11,0,0,1-2.55-3.82,3.89,3.89,0,0,1,1.41-3,5.14,5.14,0,0,1,3.51-1.25,5.38,5.38,0,0,1,3.18.94,4.4,4.4,0,0,1,1.79,2.3l-1.93.8a2.78,2.78,0,0,0-1.06-1.48,3.1,3.1,0,0,0-1.93-.6,3.17,3.17,0,0,0-2,.67,2,2,0,0,0-.83,1.63,1.88,1.88,0,0,0,.65,1.42,11.34,11.34,0,0,0,3.11,1.43,7.85,7.85,0,0,1,3.48,2,4.35,4.35,0,0,1,1,2.94Zm6.69,4.64a5.28,5.28,0,0,1-4-1.65,5.87,5.87,0,0,1-1.56-4.18c0-2.53.51-3.06,1.52-4.17a5.46,5.46,0,0,1,7.77-.09,6.3,6.3,0,0,1,1.44,4.41l0,.23h-8.61a3.56,3.56,0,0,0,1.08,2.59,3.47,3.47,0,0,0,5.54-1l1.83.89a5.39,5.39,0,0,1-2,2.17,5.67,5.67,0,0,1-3,.78m-3.29-7.15h6.28A2.71,2.71,0,0,0,145.7,20a3.23,3.23,0,0,0-2.24-.75,3,3,0,0,0-2,.71,3.48,3.48,0,0,0-1.1,1.93m14.05-4.52a5.11,5.11,0,0,1,3.6,1.22A4.32,4.32,0,0,1,159.32,22V28.7h-2V27.18h-.09a3.91,3.91,0,0,1-3.4,1.88,4.43,4.43,0,0,1-3-1.07,3.44,3.44,0,0,1-1.22-2.68,3.25,3.25,0,0,1,1.29-2.71,5.41,5.41,0,0,1,3.43-1,6.16,6.16,0,0,1,3,.67v-.47A2.33,2.33,0,0,0,156.5,20a2.92,2.92,0,0,0-2-.75,3.16,3.16,0,0,0-2.73,1.46L150,19.54a5,5,0,0,1,4.43-2.15Zm-2.66,8a1.62,1.62,0,0,0,.68,1.34,2.5,2.5,0,0,0,1.6.54,3.28,3.28,0,0,0,2.31-1,3,3,0,0,0,1-2.26,4.21,4.21,0,0,0-2.68-.76,3.47,3.47,0,0,0-2.09.6,1.79,1.79,0,0,0-.84,1.5Zm11.59,3.35h-2.06V17.75h2v1.79h.09a3,3,0,0,1,1.29-1.49,3.56,3.56,0,0,1,1.91-.62,3.73,3.73,0,0,1,1.52.27l-.63,2a3.49,3.49,0,0,0-1.2-.15,2.67,2.67,0,0,0-2,.94,3.12,3.12,0,0,0-.86,2.19Zm10.24.36a5.41,5.41,0,0,1-4-1.65,5.91,5.91,0,0,1-1.59-4.18A5.86,5.86,0,0,1,169.52,19a5.41,5.41,0,0,1,4-1.65,5,5,0,0,1,4.81,3.15l-1.88.78a3.08,3.08,0,0,0-3.06-2.05A3.18,3.18,0,0,0,171,20.41a4.11,4.11,0,0,0-1,2.82A3.27,3.27,0,0,0,171,26a3.18,3.18,0,0,0,2.44,1.14,3.21,3.21,0,0,0,3.17-2.05l1.83.78a4.89,4.89,0,0,1-1.89,2.31,5.31,5.31,0,0,1-3,.84Zm6.13-16.37h2.06v5.06l-.09,1.52h.09a3.54,3.54,0,0,1,1.44-1.34,4.1,4.1,0,0,1,2-.54,4,4,0,0,1,3.1,1.15,4.62,4.62,0,0,1,1.09,3.28V28.7h-2.06V22.22c0-2-.87-2.95-2.62-2.95a2.62,2.62,0,0,0-2.11,1,3.64,3.64,0,0,0-.86,2.42v6H179.7Zm24.93,16.37a8.07,8.07,0,0,1-5.94-2.39,8.16,8.16,0,0,1-2.37-6,8.06,8.06,0,0,1,2.37-5.95,8,8,0,0,1,5.94-2.41A7.47,7.47,0,0,1,210.52,15L209,16.38a5.49,5.49,0,0,0-4.41-2.08,6.05,6.05,0,0,0-4.45,1.79,6.27,6.27,0,0,0-1.76,4.61,6.27,6.27,0,0,0,1.76,4.61,6.07,6.07,0,0,0,4.45,1.79,6.3,6.3,0,0,0,4.86-2.35L211,26.2a7.74,7.74,0,0,1-2.8,2.11,8.4,8.4,0,0,1-3.56.75Zm7.15-5.83A5.81,5.81,0,0,1,213.37,19a5.76,5.76,0,0,1,8.07,0,5.79,5.79,0,0,1,1.61,4.19,5.75,5.75,0,0,1-1.61,4.18,5.76,5.76,0,0,1-8.07,0,5.81,5.81,0,0,1-1.59-4.18m2.06,0a4,4,0,0,0,1,2.86,3.53,3.53,0,0,0,5.1,0,4,4,0,0,0,1-2.86,3.94,3.94,0,0,0-1-2.84,3.46,3.46,0,0,0-5.1,0,4,4,0,0,0-1,2.84m10.67-5.48h2v1.52h.09A3.54,3.54,0,0,1,228,17.93a4.1,4.1,0,0,1,2-.54,4,4,0,0,1,3.1,1.15,4.67,4.67,0,0,1,1.09,3.28V28.7h-2.06V22a2.42,2.42,0,0,0-2.71-2.68,2.59,2.59,0,0,0-2.06,1,3.62,3.62,0,0,0-.82,2.38V28.7h-2.06V17.75Zm20,7.91a3,3,0,0,1-1.25,2.42,5,5,0,0,1-3.16,1,4.94,4.94,0,0,1-2.9-.86,4.66,4.66,0,0,1-1.79-2.27l1.83-.78a3.44,3.44,0,0,0,1.18,1.53,2.84,2.84,0,0,0,1.68.55,2.94,2.94,0,0,0,1.65-.43,1.2,1.2,0,0,0,.66-1c0-.7-.54-1.22-1.61-1.55l-1.88-.47q-3.19-.8-3.2-3.08A2.84,2.84,0,0,1,237,18.3a5,5,0,0,1,3.12-.91,5.11,5.11,0,0,1,2.63.69,3.74,3.74,0,0,1,1.64,1.86l-1.83.76a2.23,2.23,0,0,0-1-1.08,3.23,3.23,0,0,0-1.58-.4,2.66,2.66,0,0,0-1.44.41,1.15,1.15,0,0,0-.64,1c0,.63.59,1.07,1.77,1.34l1.66.43c2.17.53,3.26,1.63,3.26,3.28Zm.77-2.43A5.81,5.81,0,0,1,246.88,19a5.41,5.41,0,0,1,4.05-1.65A5.33,5.33,0,0,1,255,19a5.75,5.75,0,0,1,1.61,4.19A5.71,5.71,0,0,1,255,27.41a5.35,5.35,0,0,1-4,1.65,5.41,5.41,0,0,1-4.05-1.65,5.81,5.81,0,0,1-1.59-4.18m2.06,0a4,4,0,0,0,1,2.86,3.53,3.53,0,0,0,5.1,0,4,4,0,0,0,1-2.86,4,4,0,0,0-1-2.84,3.46,3.46,0,0,0-5.1,0,4,4,0,0,0-1,2.84m12.76-10.54v16h-2.06v-16Zm7,16.37a5.24,5.24,0,0,1-4-1.65,5.88,5.88,0,0,1-1.57-4.18c0-2.53.51-3.06,1.52-4.17a5.47,5.47,0,0,1,7.78-.09,6.3,6.3,0,0,1,1.44,4.41l0,.23H263.7a3.56,3.56,0,0,0,1.07,2.59,3.48,3.48,0,0,0,5.55-1l1.83.89a5.49,5.49,0,0,1-2,2.17,5.67,5.67,0,0,1-3,.78Zm-3.29-7.15h6.29a2.75,2.75,0,0,0-.93-1.89,3.25,3.25,0,0,0-2.25-.75,3,3,0,0,0-2,.71,3.43,3.43,0,0,0-1.11,1.93M57.58,21.68V19.21h8.28A7.54,7.54,0,0,1,66,20.72a8.19,8.19,0,0,1-2.15,5.8,8.3,8.3,0,0,1-6.32,2.54A9.19,9.19,0,0,1,48.34,20a9.19,9.19,0,0,1,9.19-9.06,8.6,8.6,0,0,1,6.21,2.5L62,15.18a6.3,6.3,0,0,0-4.47-1.77,6.59,6.59,0,0,0,0,13.17,6.07,6.07,0,0,0,4.58-1.81,5.16,5.16,0,0,0,1.34-3.09Zm21,1.54a5.86,5.86,0,1,1-5.86-5.83,5.77,5.77,0,0,1,5.86,5.83m-2.57,0a3.3,3.3,0,1,0-6.58,0,3.3,3.3,0,1,0,6.58,0Zm15.34,0a5.86,5.86,0,1,1-5.85-5.83,5.77,5.77,0,0,1,5.85,5.83m-2.56,0a3.3,3.3,0,1,0-6.59,0,3.3,3.3,0,1,0,6.59,0Zm14.81-5.48V28.22c0,4.31-2.54,6.08-5.55,6.08a5.55,5.55,0,0,1-5.17-3.45l2.23-.93A3.23,3.23,0,0,0,98.1,32c1.93,0,3.12-1.2,3.12-3.43v-.84h-.09a4,4,0,0,1-3.07,1.33,5.84,5.84,0,0,1,0-11.67,4,4,0,0,1,3.07,1.3h.09v-1Zm-2.25,5.5a3.29,3.29,0,0,0-3.12-3.56A3.39,3.39,0,0,0,95,23.24a3.34,3.34,0,0,0,3.25,3.52,3.25,3.25,0,0,0,3.12-3.52M108,11.61V28.7h-2.56V11.61Zm9.9,13.53,2,1.33A5.81,5.81,0,0,1,115,29.06a5.71,5.71,0,0,1-5.79-5.84,5.55,5.55,0,0,1,5.5-5.84,5.45,5.45,0,0,1,5,3.72l.26.66L112.19,25A3,3,0,0,0,115,26.76a3.32,3.32,0,0,0,2.87-1.62M111.77,23,117,20.88a2.24,2.24,0,0,0-2.16-1.24,3.2,3.2,0,0,0-3,3.41Z" transform="translate(-4.48 -4.17)"/></g></g></svg>