<?xml version="1.0" encoding="UTF-8"?>
<!DOCTYPE svg PUBLIC "-//W3C//DTD SVG 1.1//EN" "http://www.w3.org/Graphics/SVG/1.1/DTD/svg11.dtd">
<!-- Creator: CorelDRAW 2026 -->
<svg xmlns="http://www.w3.org/2000/svg" xml:space="preserve" width="292.72mm" height="77.5405mm" version="1.1" style="shape-rendering:geometricPrecision; text-rendering:geometricPrecision; image-rendering:optimizeQuality; fill-rule:evenodd; clip-rule:evenodd"
viewBox="0 0 29272 7754.05"
 xmlns:xlink="http://www.w3.org/1999/xlink"
 xmlns:xodm="http://www.corel.com/coreldraw/odm/2003">
 <defs>
  <style type="text/css">
   <![CDATA[
    .fil1 {fill:#0A0E59;fill-rule:nonzero}
    .fil0 {fill:#1034F2;fill-rule:nonzero}
   ]]>
  </style>
 </defs>
 <g id="Camada_x0020_1">
  <metadata id="CorelCorpID_0Corel-Layer"/>
  <g id="_1508008073712">
   <path class="fil0" d="M9046.76 6309.13l0 -817.49 1830.56 0c65.24,0 118.78,-22.12 160.71,-66.37 41.93,-44.25 62.88,-96.65 62.88,-157.17l0 -873.39 -6.99 0c-107.12,121.13 -216.6,218.91 -328.39,293.44 -111.79,74.53 -231.7,129.29 -359.81,164.2 -128.11,34.95 -269.01,52.4 -422.69,52.4 -316.74,0 -602.07,-75.66 -855.89,-227.07 -253.87,-151.37 -455.33,-364.48 -604.39,-639.29 -149.05,-274.81 -223.58,-593.87 -223.58,-957.22 0,-344.67 73.39,-655.56 220.09,-932.73 146.75,-277.12 359.81,-497.22 639.29,-660.24 279.48,-163.06 619.53,-244.57 1020.09,-244.57 386.61,0 719.67,79.2 999.15,237.55 279.44,158.39 496.04,381.98 649.76,670.75 153.73,288.82 230.57,631.18 230.57,1027.07l0 2117.02c0,312.08 -89.67,558.96 -269.01,740.61 -179.34,181.66 -427.36,272.5 -744.1,272.5l-1998.25 0zm1131.88 -2221.83c190.99,0 354.01,-44.24 489.11,-132.74 135.04,-88.53 238.68,-206.13 310.89,-352.87 72.22,-146.7 108.3,-310.9 108.3,-492.55 0,-195.65 -36.08,-372.64 -108.3,-530.99 -72.21,-158.39 -175.85,-284.14 -310.89,-377.3 -135.1,-93.16 -298.12,-139.72 -489.11,-139.72 -186.32,0 -348.16,45.38 -485.56,136.22 -137.41,90.85 -242.22,213.12 -314.43,366.8 -72.17,153.72 -108.3,326.08 -108.3,517.02 0,186.32 36.13,355.19 108.3,506.56 72.21,151.41 177.02,272.5 314.43,363.34 137.4,90.81 299.24,136.23 485.56,136.23z"/>
   <path class="fil0" d="M12495.71 4890.79l0 -3563.29 964.2 0 0 3563.29 -964.2 0z"/>
   <path class="fil0" d="M13922.26 4890.79l0 -817.45 1868.7 0c55.91,0 105.95,-11.66 150.2,-34.95 44.24,-23.31 79.23,-55.9 104.8,-97.83 25.63,-41.9 38.45,-88.5 38.45,-139.73 0,-55.88 -12.79,-104.8 -38.45,-146.74 -25.57,-41.88 -60.56,-75.66 -104.8,-101.27 -44.25,-25.62 -94.29,-38.44 -150.2,-38.44l-670.75 0c-228.22,0 -434.34,-36.09 -618.34,-108.3 -184.01,-72.22 -330.75,-188.64 -440.18,-349.35 -109.45,-160.71 -164.21,-371.46 -164.21,-632.31 0,-200.28 50.1,-383.14 150.24,-548.48 100.14,-165.33 235.28,-298.11 405.24,-398.25 169.94,-100.14 357.49,-150.2 562.45,-150.2 1536.84,0 3073.7,0 4610.56,0 0,272.5 0,544.96 0,817.46l-4519.73 0c-69.8,0 -131.64,23.31 -185.18,69.85 -53.54,46.57 -80.33,107.14 -80.33,181.65 0,74.54 25.61,136.32 76.84,185.2 51.27,48.95 114.15,73.34 188.67,73.34l670.72 0c256.18,0 477.44,38.44 663.77,115.29 186.31,76.83 330.71,196.78 433.16,359.81 102.45,163.02 153.72,377.3 153.72,642.77 0,204.96 -51.27,392.46 -153.72,562.46 -102.45,169.99 -239.96,305.13 -412.21,405.24 -172.23,100.05 -365.76,150.23 -579.92,150.23l-1959.5 0z"/>
   <path class="fil0" d="M18486.26 4890.79c-316.7,0 -564.8,-90.85 -744.1,-272.5 -179.34,-181.65 -269,-428.53 -269,-740.61l0 -3444.51 957.21 0 0 3416.58c0,60.57 22.13,112.97 66.36,157.23 44.2,44.23 96.67,66.36 157.18,66.36 321.5,0 650.56,0 972.06,0 0,272.5 0,544.95 0,817.45l-1139.71 0z"/>
   <path class="fil0" d="M21714.12 2389.48c-158.35,0 -293.45,-55.9 -405.24,-167.69 -111.79,-111.79 -167.69,-246.84 -167.69,-405.23 0,-158.35 55.9,-293.45 167.69,-405.24 111.79,-111.79 246.89,-167.69 405.24,-167.69 158.39,0 293.44,55.9 405.23,167.69 111.79,111.79 167.69,246.89 167.69,405.24 0,158.39 -55.9,293.44 -167.69,405.23 -111.79,111.79 -246.84,167.69 -405.23,167.69z"/>
   <path class="fil0" d="M19999.32 4890.79l0 -3563.29 964.19 0 0 3563.29 -964.19 0z"/>
   <path class="fil0" d="M24066.44 4974.61c-367.97,0 -696.36,-82.64 -985.14,-248.02 -288.82,-165.33 -517.03,-388.91 -684.71,-670.75 -167.69,-281.79 -251.56,-597.36 -251.56,-946.7 0,-349.34 83.87,-664.9 251.56,-946.74 167.68,-281.79 395.89,-505.37 684.71,-670.7 288.78,-165.38 617.17,-248.07 985.14,-248.07 367.97,0 696.37,82.69 985.14,248.07 288.77,165.33 517.03,388.91 684.71,670.7 167.69,281.84 251.51,597.4 251.51,946.74 0,349.34 -83.82,664.91 -251.51,946.7 -167.68,281.84 -395.94,505.42 -684.71,670.75 -288.77,165.38 -617.17,248.02 -985.14,248.02zm0 -817.45c195.61,0 364.48,-46.56 506.55,-139.72 142.04,-93.16 251.51,-218.91 328.35,-377.31 76.89,-158.35 115.29,-335.37 115.29,-530.99 0,-195.65 -38.4,-372.64 -115.29,-530.99 -76.84,-158.39 -186.31,-284.14 -328.35,-377.3 -142.07,-93.16 -310.94,-139.72 -506.55,-139.72 -195.66,0 -364.48,46.56 -506.55,139.72 -142.08,93.16 -251.51,218.91 -328.4,377.3 -76.84,158.35 -115.28,335.34 -115.28,530.99 0,195.62 38.44,372.64 115.28,530.99 76.89,158.4 186.32,284.15 328.4,377.31 142.07,93.16 310.89,139.72 506.55,139.72z"/>
   <path class="fil0" d="M27532.24 4974.61c-363.3,0 -675.37,-72.17 -936.22,-216.56 -260.85,-144.43 -459.95,-337.73 -597.36,-579.9l-12.61 -22.6c176.37,-323.03 258.88,-675.82 258.88,-1046.41 0,-396.81 -94.6,-773.25 -297.67,-1114.51 -47.43,-79.72 -99.01,-155.43 -154.73,-227.16l0 -439.97 957.21 0 0 2047.16c0,144.39 34.91,275.95 104.77,394.72 69.9,118.77 164.2,213.11 282.97,282.97 118.77,69.9 250.38,104.81 394.76,104.81 144.39,0 275.99,-34.91 394.76,-104.81 118.78,-69.86 213.12,-164.2 282.98,-282.97 69.85,-118.77 104.81,-250.33 104.81,-394.72l0 -2047.16 957.21 0 0 2047.16c0,293.44 -68.73,561.27 -206.13,803.49 -137.41,242.17 -335.38,435.47 -593.87,579.9 -258.53,144.39 -571.79,216.56 -939.76,216.56z"/>
   <path class="fil0" d="M-0 4890.79l0 -4890.79 2186.88 0c321.35,0 613.67,71.05 876.83,213.06 85.57,46.22 165.47,98.19 239.7,155.96 -102.99,131.21 -164.38,296.62 -164.38,476.35 0,426.53 345.8,772.33 772.33,772.33l14.19 -0.16c0.7,21.91 1.05,43.98 1.05,66.28 0,326.04 -76.85,613.66 -230.59,862.87 -153.69,249.21 -356.3,445.98 -607.86,590.37l447.16 847.53c30.79,58.41 103.82,90.84 167.71,90.84l582.52 0c23.79,50.13 49.3,99.2 76.44,146.98 148.97,262.22 340.94,486.58 574.62,668.38l-1387.29 0c-195.57,0 -373.84,-48.96 -534.5,-146.76 -160.69,-97.72 -287.67,-225.88 -380.78,-384.22l-551.96 -992.19c-18.63,0 -37.28,0 -55.91,0 -18.61,0 -37.26,0 -55.89,0l-971.17 0 0 1523.17 -999.1 0zm999.1 -2403.48l1069.01 0c158.35,0 302.74,-31.47 433.15,-94.35 130.42,-62.87 234.04,-154.86 310.96,-275.93 76.81,-121.14 115.27,-265.53 115.27,-433.21 0,-167.68 -39.62,-312.08 -118.77,-433.21 -79.21,-121.1 -182.83,-213.05 -310.94,-275.95 -128.08,-62.88 -271.32,-94.33 -429.67,-94.33l-1069.01 0 0 1606.98z"/>
   <path class="fil1" d="M3911.36 1377.42c-147.05,0 -272.5,-51.91 -376.32,-155.72 -103.81,-103.82 -155.72,-229.23 -155.72,-376.32 0,-147.05 51.91,-272.5 155.72,-376.32 103.82,-103.81 229.27,-155.72 376.32,-155.72 147.09,0 272.5,51.91 376.32,155.72 103.81,103.82 155.72,229.27 155.72,376.32 0,147.09 -51.91,272.5 -155.72,376.32 -103.82,103.81 -229.23,155.72 -376.32,155.72z"/>
   <path class="fil0" d="M5316.97 1493.87c-256.52,160.49 -457.84,377.46 -604,650.99 -164.09,307.06 -218.3,631.84 -213.04,973.86 4.68,301.93 93.38,617.37 242.83,880.39 155.38,273.53 364.5,490.48 627.31,650.99 262.81,160.44 560.09,240.68 891.77,240.68 331.68,0 626.48,-80.24 884.26,-240.68 309.06,-192.37 544.12,-475.31 681.52,-807.75l-989.39 0c-151.34,169.82 -350.9,255.15 -588.69,255.15 -423.37,0 -711.67,-279.81 -823.51,-671.39l2465.71 0c89.2,-805.34 -79.25,-1483.44 -807.81,-1932.24 -523.69,-321.45 -1242.51,-328.13 -1766.96,0zm892.06 552.62c408.88,0 784.52,329.95 834.61,736.84l-1639.71 0c57.65,-419.93 386.5,-736.84 805.1,-736.84z"/>
   <path class="fil1" d="M22009.11 7754.05c-68.08,0 -129.23,-15.76 -183.45,-47.28 -54.21,-31.52 -96.76,-74.7 -127.65,-129.54 -30.89,-54.85 -46.34,-118.83 -46.34,-191.96l0 -658.13c0,-34.04 -8.19,-64.93 -24.58,-92.67 -16.39,-27.74 -38.46,-49.8 -66.19,-66.19 -27.74,-16.39 -58,-24.59 -90.78,-24.59 -32.78,0 -62.73,8.2 -89.83,24.59 -27.11,16.39 -48.54,38.45 -64.3,66.19 -15.76,27.74 -23.64,58.63 -23.64,92.67l0 1004.22 -181.56 0 0 -979.64c0,-69.34 15.13,-131.75 45.39,-187.22 30.26,-55.48 72.5,-99.29 126.71,-131.44 54.22,-32.15 116.62,-48.23 187.23,-48.23 71.86,0 134.9,16.08 189.12,48.23 54.21,32.15 96.45,75.96 126.71,131.44 30.26,55.47 45.39,117.88 45.39,187.22l0 658.14c0,35.3 8.19,66.5 24.58,93.61 16.39,27.11 38.14,48.86 65.25,65.25 27.11,16.39 56.42,24.58 87.94,24.58 31.52,0 60.52,-8.19 86.99,-24.58 26.48,-16.39 47.6,-38.14 63.36,-65.25 15.76,-27.11 23.64,-58.31 23.64,-93.61l0 -658.14c0,-69.34 15.44,-131.75 46.33,-187.22 30.89,-55.48 73.44,-99.29 127.66,-131.44 54.21,-32.15 117.25,-48.23 189.12,-48.23 70.6,0 133.01,16.08 187.22,48.23 54.22,32.15 96.46,75.96 126.71,131.44 30.26,55.47 45.39,117.88 45.39,187.22l0 979.64 -181.55 0 0 -1004.22c0,-34.04 -7.88,-64.93 -23.64,-92.67 -15.76,-27.74 -37.19,-49.8 -64.3,-66.19 -27.11,-16.39 -57.05,-24.59 -89.83,-24.59 -34.04,0 -64.62,8.2 -91.73,24.59 -27.1,16.39 -48.85,38.45 -65.24,66.19 -16.39,27.74 -24.59,58.63 -24.59,92.67l0 658.13c0,73.13 -15.44,137.11 -46.33,191.96 -30.89,54.84 -73.13,98.02 -126.71,129.54 -53.59,31.52 -114.42,47.28 -182.5,47.28z"/>
   <path id="_1" class="fil1" d="M23093.59 7731.36l450.11 -1197.12c20.17,-51.7 47.91,-89.52 83.21,-113.47 35.3,-23.96 76.28,-35.94 122.93,-35.94 46.64,0 87.94,11.67 123.87,34.99 35.93,23.32 63.35,60.83 82.27,112.53l451.99 1199.01 -198.58 0 -115.36 -319.61 -692.17 0 -117.26 319.61 -191.01 0zm365 -480.36l580.6 0 -236.4 -656.25c-6.31,-16.39 -13.24,-28.99 -20.8,-37.82 -7.57,-8.82 -18.29,-13.24 -32.15,-13.24 -12.61,0 -22.7,4.42 -30.26,13.24 -7.57,8.83 -13.87,21.43 -18.92,37.82l-242.07 656.25z"/>
   <path id="_2" class="fil1" d="M24579 7731.36l0 -1323.83 580.6 0c83.21,0 158.86,17.96 226.94,53.9 68.08,35.93 122.3,86.36 162.64,151.29 40.35,64.93 60.52,140.89 60.52,227.89 0,88.26 -22.38,166.11 -67.14,233.56 -44.76,67.45 -104.96,117.57 -180.61,150.35l141.84 287.46c10.09,20.17 21.12,34.99 33.1,44.44 11.98,9.46 29.31,14.19 52.01,14.19l139.94 0 0 160.75 -168.31 0c-49.17,0 -92.36,-12.61 -129.55,-37.82 -37.19,-25.22 -67.77,-59.26 -91.72,-102.13l-158.86 -323.39c-8.83,1.26 -18.6,2.2 -29.31,2.84 -10.72,0.63 -21.12,0.94 -31.21,0.94l-359.33 0 0 459.56 -181.55 0zm181.55 -620.31l374.46 0c54.21,0 103.7,-10.72 148.46,-32.15 44.76,-21.43 80.06,-52.32 105.91,-92.67 25.84,-40.34 38.76,-88.88 38.76,-145.62 0,-58 -13.23,-107.17 -39.71,-147.51 -26.48,-40.35 -61.78,-71.24 -105.91,-92.67 -44.12,-21.44 -92.67,-32.15 -145.62,-32.15l-376.35 0 0 542.77z"/>
   <path id="_3" class="fil1" d="M26503.17 7731.36c-100.86,0 -192.9,-17.34 -276.11,-52.01 -83.21,-34.67 -154.76,-82.26 -214.65,-142.78 -59.89,-60.52 -105.91,-130.81 -138.06,-210.87 -32.15,-80.06 -48.22,-165.48 -48.22,-256.26 0,-90.77 16.07,-176.19 48.22,-256.25 32.15,-80.06 78.17,-150.35 138.06,-210.87 59.89,-60.52 131.44,-108.11 214.65,-142.79 83.21,-34.67 175.25,-52 276.11,-52l170.21 0 0 160.75 -164.53 0c-71.87,0 -138.06,12.61 -198.58,37.82 -60.52,25.22 -113.16,60.52 -157.91,105.91 -44.76,45.39 -79.75,98.34 -104.97,158.86 -25.21,60.52 -37.82,126.71 -37.82,198.57 0,70.61 12.61,136.48 37.82,197.63 25.22,61.15 60.21,114.42 104.97,159.81 44.75,45.39 97.39,80.69 157.91,105.91 60.52,25.21 126.71,37.82 198.58,37.82l164.53 0 0 160.75 -170.21 0z"/>
   <path id="_4" class="fil1" d="M26797.13 7731.36l450.11 -1197.12c20.17,-51.7 47.91,-89.52 83.21,-113.47 35.3,-23.96 76.28,-35.94 122.93,-35.94 46.64,0 87.94,11.67 123.87,34.99 35.93,23.32 63.35,60.83 82.27,112.53l451.99 1199.01 -198.58 0 -115.36 -319.61 -692.17 0 -117.26 319.61 -191.01 0zm365 -480.36l580.6 0 -236.4 -656.25c-6.31,-16.39 -13.24,-28.99 -20.8,-37.82 -7.57,-8.82 -18.29,-13.24 -32.15,-13.24 -12.61,0 -22.7,4.42 -30.26,13.24 -7.57,8.83 -13.87,21.43 -18.92,37.82l-242.07 656.25z"/>
   <path id="_5" class="fil1" d="M28305.24 7731.36l0 -160.75 573.03 0c44.13,0 81.95,-10.4 113.47,-31.21 31.52,-20.8 56.1,-47.59 73.76,-80.37 17.65,-32.78 26.47,-67.45 26.47,-104.02 0,-37.82 -8.51,-72.81 -25.53,-104.96 -17.02,-32.15 -40.97,-57.99 -71.86,-77.54 -30.89,-19.54 -68.4,-29.31 -112.53,-29.31l-249.64 0c-74.38,0 -139.95,-15.44 -196.68,-46.33 -56.74,-30.89 -101.18,-73.76 -133.33,-128.61 -32.15,-54.84 -48.23,-116.93 -48.23,-186.28 0,-70.6 15.45,-134.27 46.34,-191.01 30.89,-56.73 74.39,-101.49 130.49,-134.27 56.11,-32.78 120.72,-49.17 193.85,-49.17l561.68 0 0 160.75 -544.66 0c-41.61,0 -78.17,9.77 -109.69,29.31 -31.52,19.54 -55.48,44.76 -71.87,75.65 -16.39,30.89 -24.58,63.98 -24.58,99.29 0,34.04 7.88,66.5 23.64,97.39 15.76,30.89 39.08,55.79 69.97,74.7 30.89,18.92 66.51,28.37 106.86,28.37l255.31 0c79.43,0 147.51,15.76 204.24,47.28 56.74,31.52 100.24,74.39 130.5,128.6 30.26,54.22 45.39,116 45.39,185.34 0,76.91 -15.45,145.31 -46.34,205.19 -30.89,59.89 -74.7,106.86 -131.44,140.9 -56.73,34.04 -121.66,51.06 -194.79,51.06l-593.83 0z"/>
  </g>
 </g>
</svg>
