<svg width="40" height="40" viewBox="0 0 40 40" fill="none" xmlns="http://www.w3.org/2000/svg">
<rect width="40" height="40" rx="20" fill="#EF4A79"/>
<path d="M11.9982 12.3285C12.4041 12.3285 12.7332 12.0067 12.7332 11.6098C12.7332 11.2129 12.4041 10.8911 11.9982 10.8911C11.5922 10.8911 11.2631 11.2129 11.2631 11.6098C11.2631 12.0067 11.5922 12.3285 11.9982 12.3285Z" fill="#1C164B"/>
<path d="M9.73504 15.0761C10.141 15.0761 10.4701 14.7544 10.4701 14.3574C10.4701 13.9605 10.141 13.6387 9.73504 13.6387C9.32909 13.6387 9 13.9605 9 14.3574C9 14.7544 9.32909 15.0761 9.73504 15.0761Z" fill="#1C164B"/>
<path d="M10.2647 20.6477C9.85948 20.6477 9.52962 20.3251 9.52962 19.929C9.52962 19.5328 9.85953 19.2103 10.2647 19.2103C10.6698 19.2103 10.9997 19.5329 10.9997 19.929C10.9998 20.3252 10.6698 20.6477 10.2647 20.6477Z" fill="#1C164B"/>
<path d="M12.6667 23.5C13.0727 23.5 13.4018 23.1782 13.4018 22.7813C13.4018 22.3844 13.0727 22.0626 12.6667 22.0626C12.2608 22.0626 11.9317 22.3844 11.9317 22.7813C11.9317 23.1782 12.2608 23.5 12.6667 23.5Z" fill="#1C164B"/>
<path d="M11.6335 17.0711C11.6335 16.6749 11.9635 16.3524 12.3685 16.3524C12.7737 16.3524 13.1036 16.675 13.1036 17.0711C13.1036 17.4672 12.7736 17.7898 12.3685 17.7898C11.9634 17.7869 11.6335 17.4672 11.6335 17.0711Z" fill="#1C164B"/>
<path d="M30.9915 12.9256C30.9105 11.7966 29.9352 10.8968 28.766 10.8968H25.872V10.3054C25.872 9.31785 25.0357 8.5001 24.0257 8.5001L19.9451 8.5C18.938 8.5 18.0988 9.31775 18.0988 10.3053V10.8967L13.9631 10.8968C13.9371 10.894 13.9081 10.8911 13.8792 10.8911C13.8444 10.8911 13.8097 10.8939 13.775 10.8996C13.4392 10.9279 13.173 11.1938 13.1499 11.5221C13.147 11.5504 13.144 11.5815 13.144 11.6098C13.144 11.6381 13.1469 11.6692 13.1499 11.6976C13.1701 12.0484 13.4711 12.3286 13.8328 12.3286H15.3175C15.3436 12.3286 15.3725 12.3342 15.3985 12.3342C15.4622 12.3427 15.5201 12.3569 15.5779 12.3796C15.8268 12.4814 16.0005 12.7191 16.0005 12.9964V13.0446C16.0005 13.3219 15.8269 13.5624 15.5779 13.6615C15.497 13.6955 15.4101 13.7124 15.3175 13.7124L11.5698 13.7123C11.1936 13.7123 10.8839 14.015 10.8839 14.3829V14.431C10.8839 14.7083 11.0605 14.946 11.3065 15.0479C11.3847 15.0819 11.4743 15.0988 11.5699 15.0988H15.9253C16.0179 15.0988 16.1076 15.1158 16.1886 15.1469C16.2494 15.1696 16.3044 15.2034 16.3536 15.2374C16.5099 15.3563 16.6112 15.5345 16.6112 15.7354V15.7808C16.6112 16.0694 16.4058 16.3127 16.1221 16.392L14.2033 16.3919C13.8271 16.3919 13.5175 16.6947 13.5175 17.0625V17.1106C13.5175 17.3879 13.6941 17.6257 13.94 17.7276C14.0182 17.7615 14.1079 17.7784 14.2034 17.7784L15.9803 17.7785C16.0295 17.7869 16.0758 17.8012 16.1221 17.8181C16.3709 17.92 16.5446 18.1606 16.5446 18.4351V18.4832C16.5446 18.8086 16.3044 19.0831 15.989 19.1425L12.2065 19.1423C12.1573 19.1423 12.1081 19.148 12.0618 19.1564C11.6942 19.2243 11.4135 19.547 11.4135 19.9261V19.9827C11.4135 20.3053 11.6161 20.5854 11.9026 20.7043C11.9952 20.7439 12.0965 20.7637 12.2064 20.7637L16.0352 20.7638C16.4115 20.7638 16.7182 21.0665 16.7182 21.4344V21.4825C16.7182 21.7598 16.5446 21.9975 16.2957 22.0994C16.2147 22.1334 16.1249 22.1503 16.0323 22.1503H15.8153C15.7371 22.1503 15.6561 22.1503 15.5779 22.1503C15.2191 22.1531 14.8602 22.1616 14.5043 22.1786C14.3827 22.1842 14.2785 22.2069 14.1859 22.2465L14.1831 22.2493C14.1252 22.2691 14.0731 22.2974 14.0297 22.3314C13.859 22.4587 13.7779 22.6596 13.8011 22.8888C13.8358 23.2426 14.1339 23.4689 14.6085 23.4831H14.6577C14.6837 23.4888 14.7127 23.4888 14.7387 23.4888H28.7689C28.8384 23.4888 28.9049 23.486 28.9744 23.4803C28.9946 23.4775 29.0149 23.4746 29.0352 23.4718C29.0844 23.4634 29.1307 23.4605 29.177 23.4492C29.203 23.4435 29.2204 23.4379 29.2435 23.4351C29.2869 23.4237 29.3333 23.4153 29.3738 23.4039C29.3969 23.3955 29.4172 23.3926 29.4374 23.3842C29.4808 23.3701 29.5242 23.3559 29.5676 23.3389C29.5878 23.3332 29.6082 23.3248 29.6255 23.3162C29.6689 23.2964 29.7152 23.2766 29.7557 23.2568C29.773 23.2511 29.7875 23.2427 29.802 23.2341C29.8483 23.2087 29.8976 23.1832 29.941 23.1549C29.9496 23.1492 29.9612 23.1436 29.9699 23.1351C30.0249 23.1011 30.0741 23.0644 30.1262 23.0276C30.1262 23.0248 30.129 23.0219 30.132 23.0219C30.294 22.8974 30.4358 22.756 30.5574 22.5946C30.5602 22.5918 30.5632 22.589 30.566 22.5833C30.6036 22.538 30.6354 22.4871 30.6672 22.4362C30.6759 22.4249 30.6788 22.4164 30.6875 22.4051C30.7135 22.3627 30.7395 22.3146 30.7627 22.2693C30.7714 22.2551 30.7772 22.2381 30.7859 22.2239C30.8061 22.1815 30.8265 22.1362 30.8409 22.0909C30.8495 22.074 30.8553 22.057 30.8611 22.04C30.8785 21.9947 30.8929 21.9495 30.9074 21.9042C30.9133 21.8844 30.9161 21.8674 30.9219 21.8476C30.9247 21.8363 30.9277 21.8222 30.9335 21.808C30.9421 21.774 30.9451 21.7372 30.9537 21.7033C30.9566 21.6863 30.9624 21.6693 30.9624 21.6524C30.974 21.5873 30.9826 21.5222 30.9884 21.4572L31 19.2868L30.9915 12.9256ZM24.5147 10.8911H19.4646V10.0677C19.4646 9.80447 19.6759 9.59227 19.948 9.59227H24.0285C24.3005 9.59227 24.5147 9.8017 24.5147 10.0677V10.8911Z" fill="#1C164B"/>
<path d="M13.5178 28.8983C13.8231 28.9157 14.0844 28.9793 14.302 29.0858C14.5196 29.1924 14.6865 29.3306 14.7995 29.496C14.9125 29.6629 14.9698 29.8584 14.9698 30.081C14.9698 30.4912 14.7861 30.8139 14.4184 31.046C14.0508 31.2781 13.555 31.3958 12.9293 31.3958L9 31.3958V26.6042H12.6392C13.2632 26.6042 13.7607 26.7154 14.1283 26.9396C14.4959 27.1637 14.6798 27.4642 14.6798 27.8426C14.6798 28.0111 14.6359 28.178 14.5482 28.3418C14.4605 28.5055 14.3239 28.6359 14.1384 28.7313C13.9529 28.8299 13.7455 28.884 13.5178 28.8983ZM10.4688 27.5771V28.5151L12.393 28.5151C12.6594 28.5151 12.8618 28.4802 13.0035 28.4086C13.1434 28.3386 13.2143 28.2162 13.2143 28.043C13.2143 27.9603 13.1906 27.8808 13.1418 27.8029C13.0928 27.725 13.0052 27.6678 12.877 27.6312C12.7488 27.5946 12.5869 27.5771 12.3947 27.5771H10.4688ZM12.6173 30.4244C12.8888 30.4244 13.0945 30.3863 13.2379 30.3084C13.3812 30.2305 13.452 30.1001 13.452 29.9189C13.452 29.7361 13.3812 29.6073 13.2412 29.5326C13.1012 29.4579 12.8921 29.4198 12.6173 29.4198L10.4672 29.4197V30.426H12.6173V30.4244Z" fill="#1C164B"/>
<path d="M15.5946 27.5596C15.8643 27.2474 16.2412 26.992 16.727 26.7949C17.2127 26.5978 17.7437 26.5 18.3216 26.5C18.7153 26.5 19.0754 26.5426 19.4004 26.6262C19.7253 26.7097 19.9983 26.8201 20.2194 26.9588C20.4405 27.0976 20.5997 27.2553 20.6952 27.4335C20.7907 27.6117 20.8392 27.793 20.8392 27.9728C20.8392 28.2171 20.7688 28.4363 20.6265 28.6287C20.4841 28.821 20.2764 28.9961 20.0017 29.1522C19.727 29.3083 19.3685 29.4502 18.9263 29.5763C18.4975 29.7025 18.1324 29.8349 17.8258 29.9705C17.5209 30.1061 17.33 30.2339 17.2529 30.3505L20.9397 30.3504V31.3958H15.5226V30.7982C15.5896 30.3362 15.8426 29.9215 16.2798 29.5526C16.717 29.1836 17.3065 28.8951 18.0469 28.687C18.4171 28.5782 18.6884 28.493 18.8627 28.4284C19.0352 28.3653 19.1608 28.2975 19.2379 28.2249C19.3149 28.1524 19.3534 28.0783 19.3534 28.0011C19.3534 27.8512 19.2445 27.7346 19.0251 27.6479C18.8057 27.5611 18.5494 27.5186 18.2562 27.5186C17.9195 27.5186 17.5913 27.5848 17.2713 27.7188C16.9514 27.8529 16.6599 28.042 16.3953 28.2864L15.5946 27.5596Z" fill="#1C164B"/>
<path d="M26.3419 28.8983C26.6472 28.9157 26.9086 28.9793 27.1261 29.0858C27.3437 29.1924 27.5106 29.3306 27.6236 29.496C27.7366 29.6629 27.794 29.8584 27.794 30.081C27.794 30.4912 27.6102 30.8139 27.2425 31.046C26.8748 31.2781 26.3791 31.3958 25.7535 31.3958L21.8241 31.3958V26.6042H25.4633C26.0873 26.6042 26.5848 26.7154 26.9524 26.9396C27.3201 27.1637 27.5038 27.4642 27.5038 27.8426C27.5038 28.0111 27.46 28.178 27.3723 28.3418C27.2846 28.5055 27.148 28.6359 26.9625 28.7313C26.7753 28.8299 26.5696 28.884 26.3419 28.8983ZM23.2913 27.5771V28.5151L25.2154 28.5151C25.4819 28.5151 25.6843 28.4802 25.8259 28.4086C25.9659 28.3386 26.0367 28.2162 26.0367 28.043C26.0367 27.9603 26.0131 27.8808 25.9642 27.8029C25.9153 27.725 25.8276 27.6678 25.6994 27.6312C25.5713 27.5946 25.4094 27.5771 25.2171 27.5771H23.2913ZM25.4414 30.4244C25.7129 30.4244 25.9187 30.3863 26.062 30.3084C26.2054 30.2305 26.2762 30.1001 26.2762 29.9189C26.2762 29.7361 26.2054 29.6073 26.0654 29.5326C25.9254 29.4579 25.7163 29.4198 25.4414 29.4198L23.2913 29.4197V30.426H25.4414V30.4244Z" fill="#1C164B"/>
<path d="M30.1156 31.5C30.604 31.5 31 31.1036 31 30.6146C31 30.1256 30.604 29.7292 30.1156 29.7292C29.6271 29.7292 29.2312 30.1256 29.2312 30.6146C29.2312 31.1036 29.6271 31.5 30.1156 31.5Z" fill="white"/>
</svg>
