<svg xmlns="http://www.w3.org/2000/svg" viewBox="0 0 1280 800" width="1280" height="800" font-family="Inter, system-ui, sans-serif">
  <!-- PLACEHOLDER MOCKUP — substituir por screenshot real do Channel Manager -->
  <rect width="1280" height="800" fill="#F4F7FB"/>

  <!-- Sidebar -->
  <rect width="88" height="800" fill="#15304F"/>
  <circle cx="44" cy="46" r="13" fill="#427AB9"/>
  <g fill="#FFFFFF" opacity="0.16">
    <rect x="26" y="104" width="36" height="36" rx="10"/>
    <rect x="26" y="212" width="36" height="36" rx="10"/>
    <rect x="26" y="264" width="36" height="36" rx="10"/>
    <rect x="26" y="316" width="36" height="36" rx="10"/>
    <rect x="26" y="368" width="36" height="36" rx="10"/>
  </g>
  <rect x="26" y="156" width="36" height="36" rx="10" fill="#427AB9"/>
  <rect x="0" y="156" width="4" height="36" fill="#7FB1E8"/>

  <!-- Top bar -->
  <rect x="88" width="1192" height="76" fill="#FFFFFF"/>
  <line x1="88" y1="76" x2="1280" y2="76" stroke="#E4EAF2" stroke-width="1"/>
  <text x="124" y="46" font-size="22" font-weight="600" fill="#1E293B">Gestor de Canais</text>
  <rect x="332" y="24" width="230" height="30" rx="15" fill="#F1F5FA"/>
  <text x="352" y="44" font-size="13" fill="#8497AF">Buscar acomodação…</text>
  <rect x="1004" y="22" width="150" height="34" rx="10" fill="#F1F5FA"/>
  <text x="1020" y="44" font-size="13" fill="#54687F">Jun 2026</text>
  <circle cx="1210" cy="38" r="17" fill="#DCE6F3"/>
  <circle cx="1210" cy="33" r="6" fill="#9FB4CC"/>
  <path d="M1199 48a11 11 0 0 1 22 0z" fill="#9FB4CC"/>

  <!-- Status strip -->
  <g>
    <rect x="124" y="104" width="252" height="82" rx="14" fill="#FFFFFF" stroke="#E4EAF2"/>
    <text x="144" y="132" font-size="12" fill="#8497AF">CANAIS ATIVOS</text>
    <text x="144" y="166" font-size="26" font-weight="700" fill="#1E293B">812</text>
    <circle cx="344" cy="140" r="6" fill="#12B886"/>

    <rect x="392" y="104" width="252" height="82" rx="14" fill="#FFFFFF" stroke="#E4EAF2"/>
    <text x="412" y="132" font-size="12" fill="#8497AF">SINCRONIZAÇÕES HOJE</text>
    <text x="412" y="166" font-size="26" font-weight="700" fill="#1E293B">1.480</text>

    <rect x="660" y="104" width="252" height="82" rx="14" fill="#FFFFFF" stroke="#E4EAF2"/>
    <text x="680" y="132" font-size="12" fill="#8497AF">OVERBOOKINGS</text>
    <text x="680" y="166" font-size="26" font-weight="700" fill="#12B886">0</text>

    <rect x="928" y="104" width="228" height="82" rx="14" fill="#285992"/>
    <text x="948" y="132" font-size="12" fill="#B9D2EC">STATUS</text>
    <text x="948" y="166" font-size="20" font-weight="600" fill="#FFFFFF">Em tempo real</text>
  </g>

  <!-- Grid card -->
  <rect x="124" y="212" width="1032" height="540" rx="16" fill="#FFFFFF" stroke="#E4EAF2"/>
  <text x="148" y="248" font-size="15" font-weight="600" fill="#1E293B">Disponibilidade por canal</text>
  <rect x="1020" y="230" width="112" height="28" rx="8" fill="#EAF1F9"/>
  <text x="1036" y="249" font-size="12" fill="#285992">Sincronizar</text>

  <!-- Column headers (days) -->
  <g font-size="11" fill="#8497AF" text-anchor="middle">
    <text x="452" y="292">SEG</text><text x="552" y="292">TER</text><text x="652" y="292">QUA</text>
    <text x="752" y="292">QUI</text><text x="852" y="292">SEX</text><text x="952" y="292">SÁB</text>
    <text x="1052" y="292">DOM</text>
  </g>
  <line x1="148" y1="306" x2="1132" y2="306" stroke="#EDF1F7"/>

  <!-- Channel rows -->
  <g>
    <!-- row template repeated with different data -->
    <g>
      <circle cx="166" cy="340" r="12" fill="#1B62C6"/>
      <text x="192" y="345" font-size="13" fill="#1E293B">Booking.com</text>
      <g fill="#12B886" opacity="0.14">
        <rect x="412" y="322" width="80" height="36" rx="8"/><rect x="512" y="322" width="80" height="36" rx="8"/>
        <rect x="612" y="322" width="80" height="36" rx="8"/><rect x="712" y="322" width="80" height="36" rx="8"/>
        <rect x="812" y="322" width="80" height="36" rx="8"/><rect x="912" y="322" width="80" height="36" rx="8"/>
        <rect x="1012" y="322" width="80" height="36" rx="8"/>
      </g>
      <g font-size="12" fill="#0F8A66" text-anchor="middle">
        <text x="452" y="345">12</text><text x="552" y="345">10</text><text x="652" y="345">14</text>
        <text x="752" y="345">9</text><text x="852" y="345">6</text><text x="952" y="345">4</text><text x="1052" y="345">8</text>
      </g>
    </g>

    <g>
      <circle cx="166" cy="404" r="12" fill="#FF5A5F"/>
      <text x="192" y="409" font-size="13" fill="#1E293B">Airbnb</text>
      <g fill="#12B886" opacity="0.14">
        <rect x="412" y="386" width="80" height="36" rx="8"/><rect x="512" y="386" width="80" height="36" rx="8"/>
        <rect x="612" y="386" width="80" height="36" rx="8"/><rect x="812" y="386" width="80" height="36" rx="8"/>
        <rect x="1012" y="386" width="80" height="36" rx="8"/>
      </g>
      <g fill="#F0A020" opacity="0.16">
        <rect x="712" y="386" width="80" height="36" rx="8"/><rect x="912" y="386" width="80" height="36" rx="8"/>
      </g>
      <g font-size="12" text-anchor="middle">
        <text x="452" y="409" fill="#0F8A66">8</text><text x="552" y="409" fill="#0F8A66">7</text>
        <text x="652" y="409" fill="#0F8A66">9</text><text x="752" y="409" fill="#B87510">2</text>
        <text x="852" y="409" fill="#0F8A66">5</text><text x="952" y="409" fill="#B87510">1</text>
        <text x="1052" y="409" fill="#0F8A66">6</text>
      </g>
    </g>

    <g>
      <circle cx="166" cy="468" r="12" fill="#FFC72C"/>
      <text x="192" y="473" font-size="13" fill="#1E293B">Expedia</text>
      <g fill="#12B886" opacity="0.14">
        <rect x="412" y="450" width="80" height="36" rx="8"/><rect x="612" y="450" width="80" height="36" rx="8"/>
        <rect x="712" y="450" width="80" height="36" rx="8"/><rect x="812" y="450" width="80" height="36" rx="8"/>
        <rect x="912" y="450" width="80" height="36" rx="8"/><rect x="1012" y="450" width="80" height="36" rx="8"/>
      </g>
      <rect x="512" y="450" width="80" height="36" rx="8" fill="#E5484D" opacity="0.14"/>
      <g font-size="12" text-anchor="middle">
        <text x="452" y="473" fill="#0F8A66">11</text><text x="552" y="473" fill="#C23438">0</text>
        <text x="652" y="473" fill="#0F8A66">13</text><text x="752" y="473" fill="#0F8A66">10</text>
        <text x="852" y="473" fill="#0F8A66">7</text><text x="952" y="473" fill="#0F8A66">5</text>
        <text x="1052" y="473" fill="#0F8A66">9</text>
      </g>
    </g>

    <g>
      <circle cx="166" cy="532" r="12" fill="#6D28D9"/>
      <text x="192" y="537" font-size="13" fill="#1E293B">Decolar</text>
      <g fill="#12B886" opacity="0.14">
        <rect x="412" y="514" width="80" height="36" rx="8"/><rect x="512" y="514" width="80" height="36" rx="8"/>
        <rect x="612" y="514" width="80" height="36" rx="8"/><rect x="712" y="514" width="80" height="36" rx="8"/>
        <rect x="812" y="514" width="80" height="36" rx="8"/><rect x="912" y="514" width="80" height="36" rx="8"/>
        <rect x="1012" y="514" width="80" height="36" rx="8"/>
      </g>
      <g font-size="12" fill="#0F8A66" text-anchor="middle">
        <text x="452" y="537">9</text><text x="552" y="537">9</text><text x="652" y="537">12</text>
        <text x="752" y="537">8</text><text x="852" y="537">4</text><text x="952" y="537">3</text><text x="1052" y="537">7</text>
      </g>
    </g>

    <g>
      <circle cx="166" cy="596" r="12" fill="#00A699"/>
      <text x="192" y="601" font-size="13" fill="#1E293B">CVC</text>
      <g fill="#12B886" opacity="0.14">
        <rect x="412" y="578" width="80" height="36" rx="8"/><rect x="612" y="578" width="80" height="36" rx="8"/>
        <rect x="712" y="578" width="80" height="36" rx="8"/><rect x="912" y="578" width="80" height="36" rx="8"/>
        <rect x="1012" y="578" width="80" height="36" rx="8"/>
      </g>
      <g fill="#F0A020" opacity="0.16">
        <rect x="512" y="578" width="80" height="36" rx="8"/><rect x="812" y="578" width="80" height="36" rx="8"/>
      </g>
      <g font-size="12" text-anchor="middle">
        <text x="452" y="601" fill="#0F8A66">6</text><text x="552" y="601" fill="#B87510">2</text>
        <text x="652" y="601" fill="#0F8A66">8</text><text x="752" y="601" fill="#0F8A66">7</text>
        <text x="852" y="601" fill="#B87510">1</text><text x="952" y="601" fill="#0F8A66">4</text>
        <text x="1052" y="601" fill="#0F8A66">5</text>
      </g>
    </g>

    <g>
      <circle cx="166" cy="660" r="12" fill="#285992"/>
      <text x="192" y="665" font-size="13" fill="#1E293B">Google Hotéis</text>
      <g fill="#12B886" opacity="0.14">
        <rect x="412" y="642" width="80" height="36" rx="8"/><rect x="512" y="642" width="80" height="36" rx="8"/>
        <rect x="612" y="642" width="80" height="36" rx="8"/><rect x="712" y="642" width="80" height="36" rx="8"/>
        <rect x="812" y="642" width="80" height="36" rx="8"/><rect x="912" y="642" width="80" height="36" rx="8"/>
        <rect x="1012" y="642" width="80" height="36" rx="8"/>
      </g>
      <g font-size="12" fill="#0F8A66" text-anchor="middle">
        <text x="452" y="665">14</text><text x="552" y="665">12</text><text x="652" y="665">15</text>
        <text x="752" y="665">11</text><text x="852" y="665">8</text><text x="952" y="665">6</text><text x="1052" y="665">10</text>
      </g>
    </g>
  </g>

  <!-- Legend -->
  <g font-size="11" fill="#8497AF">
    <circle cx="156" cy="716" r="5" fill="#12B886"/><text x="170" y="720">Disponível</text>
    <circle cx="256" cy="716" r="5" fill="#F0A020"/><text x="270" y="720">Últimas unidades</text>
    <circle cx="400" cy="716" r="5" fill="#E5484D"/><text x="414" y="720">Esgotado</text>
  </g>
</svg>
